<mxfile host="app.diagrams.net" modified="2023-12-17T09:28:34.994Z" agent="Mozilla/5.0 (Windows NT 10.0; Win64; x64) AppleWebKit/537.36 (KHTML, like Gecko) Chrome/119.0.0.0 Safari/537.36 OPR/105.0.0.0 (Edition Yx GX)" etag="4r1qxvicJj4P5IN3DaFN" version="22.1.11" type="github">
  <diagram id="C5RBs43oDa-KdzZeNtuy" name="Page-1">
    <mxGraphModel dx="1696" dy="2622" grid="1" gridSize="10" guides="1" tooltips="1" connect="1" arrows="1" fold="1" page="1" pageScale="1" pageWidth="827" pageHeight="1169" math="0" shadow="0">
      <root>
        <mxCell id="WIyWlLk6GJQsqaUBKTNV-0" />
        <mxCell id="WIyWlLk6GJQsqaUBKTNV-1" parent="WIyWlLk6GJQsqaUBKTNV-0" />
        <mxCell id="Oa3e6Vop-IHJ1VwNxxfE-0" value="" style="edgeStyle=orthogonalEdgeStyle;rounded=0;orthogonalLoop=1;jettySize=auto;html=1;" edge="1" parent="WIyWlLk6GJQsqaUBKTNV-1" source="Oa3e6Vop-IHJ1VwNxxfE-1">
          <mxGeometry relative="1" as="geometry">
            <mxPoint x="1118.18" y="-382" as="targetPoint" />
          </mxGeometry>
        </mxCell>
        <mxCell id="Oa3e6Vop-IHJ1VwNxxfE-1" value="&lt;p style=&quot;line-height: 110%;&quot;&gt;&lt;span style=&quot;font-size: 18px;&quot;&gt;free&lt;/span&gt;&lt;/p&gt;&lt;p style=&quot;line-height: 110%;&quot;&gt;&lt;span style=&quot;font-size: 18px;&quot;&gt;list&lt;/span&gt;&lt;/p&gt;" style="ellipse;whiteSpace=wrap;html=1;" vertex="1" parent="WIyWlLk6GJQsqaUBKTNV-1">
          <mxGeometry x="1063.18" y="-482" width="110" height="60" as="geometry" />
        </mxCell>
        <mxCell id="Oa3e6Vop-IHJ1VwNxxfE-2" style="edgeStyle=orthogonalEdgeStyle;rounded=0;orthogonalLoop=1;jettySize=auto;html=1;exitX=0.5;exitY=1;exitDx=0;exitDy=0;entryX=0.5;entryY=0;entryDx=0;entryDy=0;" edge="1" parent="WIyWlLk6GJQsqaUBKTNV-1" source="Oa3e6Vop-IHJ1VwNxxfE-3" target="Oa3e6Vop-IHJ1VwNxxfE-17">
          <mxGeometry relative="1" as="geometry">
            <mxPoint x="1117.0000000000002" y="-269.9999999999998" as="targetPoint" />
          </mxGeometry>
        </mxCell>
        <mxCell id="Oa3e6Vop-IHJ1VwNxxfE-3" value="&lt;span style=&quot;font-size: 25px;&quot;&gt;Ввод&lt;br&gt;list&lt;br&gt;&lt;/span&gt;" style="shape=parallelogram;perimeter=parallelogramPerimeter;whiteSpace=wrap;html=1;fixedSize=1;" vertex="1" parent="WIyWlLk6GJQsqaUBKTNV-1">
          <mxGeometry x="1042" y="-381" width="150" height="60" as="geometry" />
        </mxCell>
        <mxCell id="Oa3e6Vop-IHJ1VwNxxfE-12" style="edgeStyle=orthogonalEdgeStyle;rounded=0;orthogonalLoop=1;jettySize=auto;html=1;exitX=0.5;exitY=1;exitDx=0;exitDy=0;entryX=0.5;entryY=0;entryDx=0;entryDy=0;" edge="1" parent="WIyWlLk6GJQsqaUBKTNV-1" source="Oa3e6Vop-IHJ1VwNxxfE-13" target="Oa3e6Vop-IHJ1VwNxxfE-16">
          <mxGeometry relative="1" as="geometry">
            <mxPoint x="1118.3600000000001" y="312" as="targetPoint" />
          </mxGeometry>
        </mxCell>
        <mxCell id="Oa3e6Vop-IHJ1VwNxxfE-13" value="free(list)" style="rounded=0;whiteSpace=wrap;html=1;fontSize=20;" vertex="1" parent="WIyWlLk6GJQsqaUBKTNV-1">
          <mxGeometry x="1006.1800000000001" y="210" width="224" height="51" as="geometry" />
        </mxCell>
        <mxCell id="Oa3e6Vop-IHJ1VwNxxfE-16" value="&lt;p style=&quot;line-height: 110%;&quot;&gt;&lt;span style=&quot;font-size: 18px;&quot;&gt;Конец&lt;/span&gt;&lt;/p&gt;" style="ellipse;whiteSpace=wrap;html=1;" vertex="1" parent="WIyWlLk6GJQsqaUBKTNV-1">
          <mxGeometry x="1063.18" y="312" width="110" height="60" as="geometry" />
        </mxCell>
        <mxCell id="Oa3e6Vop-IHJ1VwNxxfE-18" style="edgeStyle=orthogonalEdgeStyle;rounded=0;orthogonalLoop=1;jettySize=auto;html=1;exitX=0;exitY=0.5;exitDx=0;exitDy=0;entryX=0.5;entryY=0;entryDx=0;entryDy=0;" edge="1" parent="WIyWlLk6GJQsqaUBKTNV-1" source="Oa3e6Vop-IHJ1VwNxxfE-17" target="Oa3e6Vop-IHJ1VwNxxfE-13">
          <mxGeometry relative="1" as="geometry">
            <mxPoint x="1115" y="130" as="targetPoint" />
            <Array as="points">
              <mxPoint x="925" y="-158" />
              <mxPoint x="925" y="41" />
              <mxPoint x="1117" y="41" />
            </Array>
          </mxGeometry>
        </mxCell>
        <mxCell id="Oa3e6Vop-IHJ1VwNxxfE-20" style="edgeStyle=orthogonalEdgeStyle;rounded=0;orthogonalLoop=1;jettySize=auto;html=1;exitX=1;exitY=0.5;exitDx=0;exitDy=0;" edge="1" parent="WIyWlLk6GJQsqaUBKTNV-1" source="Oa3e6Vop-IHJ1VwNxxfE-17">
          <mxGeometry relative="1" as="geometry">
            <mxPoint x="1355" y="-90" as="targetPoint" />
          </mxGeometry>
        </mxCell>
        <mxCell id="Oa3e6Vop-IHJ1VwNxxfE-17" value="&lt;span style=&quot;font-size: 20px;&quot;&gt;head == NULL&lt;/span&gt;" style="rhombus;whiteSpace=wrap;html=1;" vertex="1" parent="WIyWlLk6GJQsqaUBKTNV-1">
          <mxGeometry x="1022" y="-210" width="190" height="104.5" as="geometry" />
        </mxCell>
        <mxCell id="Oa3e6Vop-IHJ1VwNxxfE-19" value="&lt;font style=&quot;font-size: 23px;&quot;&gt;Да&lt;/font&gt;" style="edgeLabel;html=1;align=center;verticalAlign=middle;resizable=0;points=[];" vertex="1" connectable="0" parent="WIyWlLk6GJQsqaUBKTNV-1">
          <mxGeometry x="974.0014285714287" y="-159.74999999999977" as="geometry" />
        </mxCell>
        <mxCell id="Oa3e6Vop-IHJ1VwNxxfE-23" style="edgeStyle=orthogonalEdgeStyle;rounded=0;orthogonalLoop=1;jettySize=auto;html=1;exitX=0.5;exitY=1;exitDx=0;exitDy=0;entryX=0.5;entryY=0;entryDx=0;entryDy=0;" edge="1" parent="WIyWlLk6GJQsqaUBKTNV-1" source="Oa3e6Vop-IHJ1VwNxxfE-21" target="Oa3e6Vop-IHJ1VwNxxfE-22">
          <mxGeometry relative="1" as="geometry" />
        </mxCell>
        <mxCell id="Oa3e6Vop-IHJ1VwNxxfE-21" value="current = current-&amp;gt;next" style="rounded=0;whiteSpace=wrap;html=1;fontSize=20;" vertex="1" parent="WIyWlLk6GJQsqaUBKTNV-1">
          <mxGeometry x="1245" y="-90" width="224" height="51" as="geometry" />
        </mxCell>
        <mxCell id="Oa3e6Vop-IHJ1VwNxxfE-24" style="edgeStyle=orthogonalEdgeStyle;rounded=0;orthogonalLoop=1;jettySize=auto;html=1;exitX=0.5;exitY=1;exitDx=0;exitDy=0;entryX=0.5;entryY=0;entryDx=0;entryDy=0;" edge="1" parent="WIyWlLk6GJQsqaUBKTNV-1" source="Oa3e6Vop-IHJ1VwNxxfE-22" target="Oa3e6Vop-IHJ1VwNxxfE-25">
          <mxGeometry relative="1" as="geometry">
            <mxPoint x="1356.842105263158" y="90" as="targetPoint" />
          </mxGeometry>
        </mxCell>
        <mxCell id="Oa3e6Vop-IHJ1VwNxxfE-22" value="head = head-&amp;gt;next" style="rounded=0;whiteSpace=wrap;html=1;fontSize=20;" vertex="1" parent="WIyWlLk6GJQsqaUBKTNV-1">
          <mxGeometry x="1245" y="10" width="224" height="51" as="geometry" />
        </mxCell>
        <mxCell id="Oa3e6Vop-IHJ1VwNxxfE-27" style="edgeStyle=orthogonalEdgeStyle;rounded=0;orthogonalLoop=1;jettySize=auto;html=1;exitX=0.5;exitY=1;exitDx=0;exitDy=0;" edge="1" parent="WIyWlLk6GJQsqaUBKTNV-1" source="Oa3e6Vop-IHJ1VwNxxfE-25">
          <mxGeometry relative="1" as="geometry">
            <mxPoint x="1117" y="-267" as="targetPoint" />
            <mxPoint x="1358.9999999999998" y="153.99999999999977" as="sourcePoint" />
            <Array as="points">
              <mxPoint x="1357" y="223" />
              <mxPoint x="1557" y="223" />
              <mxPoint x="1557" y="-267" />
            </Array>
          </mxGeometry>
        </mxCell>
        <mxCell id="Oa3e6Vop-IHJ1VwNxxfE-25" value="free(tmp)" style="rounded=0;whiteSpace=wrap;html=1;fontSize=20;" vertex="1" parent="WIyWlLk6GJQsqaUBKTNV-1">
          <mxGeometry x="1245" y="100" width="224" height="51" as="geometry" />
        </mxCell>
        <mxCell id="Oa3e6Vop-IHJ1VwNxxfE-28" value="" style="edgeStyle=orthogonalEdgeStyle;rounded=0;orthogonalLoop=1;jettySize=auto;html=1;entryX=0.5;entryY=0;entryDx=0;entryDy=0;" edge="1" parent="WIyWlLk6GJQsqaUBKTNV-1" source="Oa3e6Vop-IHJ1VwNxxfE-29" target="Oa3e6Vop-IHJ1VwNxxfE-45">
          <mxGeometry relative="1" as="geometry">
            <mxPoint x="1953.18" y="-382" as="targetPoint" />
            <Array as="points">
              <mxPoint x="1953" y="-381" />
            </Array>
          </mxGeometry>
        </mxCell>
        <mxCell id="Oa3e6Vop-IHJ1VwNxxfE-29" value="&lt;p style=&quot;line-height: 110%;&quot;&gt;&lt;span style=&quot;font-size: 18px;&quot;&gt;input&lt;/span&gt;&lt;/p&gt;&lt;p style=&quot;line-height: 110%;&quot;&gt;&lt;span style=&quot;font-size: 18px;&quot;&gt;list&lt;/span&gt;&lt;/p&gt;" style="ellipse;whiteSpace=wrap;html=1;" vertex="1" parent="WIyWlLk6GJQsqaUBKTNV-1">
          <mxGeometry x="1898.18" y="-482" width="110" height="60" as="geometry" />
        </mxCell>
        <mxCell id="Oa3e6Vop-IHJ1VwNxxfE-46" style="edgeStyle=orthogonalEdgeStyle;rounded=0;orthogonalLoop=1;jettySize=auto;html=1;exitX=0.5;exitY=1;exitDx=0;exitDy=0;" edge="1" parent="WIyWlLk6GJQsqaUBKTNV-1" source="Oa3e6Vop-IHJ1VwNxxfE-45">
          <mxGeometry relative="1" as="geometry">
            <mxPoint x="1954.074074074074" y="-290" as="targetPoint" />
          </mxGeometry>
        </mxCell>
        <mxCell id="Oa3e6Vop-IHJ1VwNxxfE-45" value="data = getchar()" style="rounded=0;whiteSpace=wrap;html=1;fontSize=20;" vertex="1" parent="WIyWlLk6GJQsqaUBKTNV-1">
          <mxGeometry x="1842" y="-381" width="224" height="51" as="geometry" />
        </mxCell>
        <mxCell id="Oa3e6Vop-IHJ1VwNxxfE-49" style="edgeStyle=orthogonalEdgeStyle;rounded=0;orthogonalLoop=1;jettySize=auto;html=1;exitX=0;exitY=0.5;exitDx=0;exitDy=0;entryX=0.5;entryY=0;entryDx=0;entryDy=0;" edge="1" parent="WIyWlLk6GJQsqaUBKTNV-1" source="Oa3e6Vop-IHJ1VwNxxfE-47" target="Oa3e6Vop-IHJ1VwNxxfE-50">
          <mxGeometry relative="1" as="geometry">
            <mxPoint x="1710" y="-50" as="targetPoint" />
          </mxGeometry>
        </mxCell>
        <mxCell id="Oa3e6Vop-IHJ1VwNxxfE-51" style="edgeStyle=orthogonalEdgeStyle;rounded=0;orthogonalLoop=1;jettySize=auto;html=1;exitX=1;exitY=0.5;exitDx=0;exitDy=0;entryX=0.5;entryY=0;entryDx=0;entryDy=0;" edge="1" parent="WIyWlLk6GJQsqaUBKTNV-1" source="Oa3e6Vop-IHJ1VwNxxfE-47" target="Oa3e6Vop-IHJ1VwNxxfE-52">
          <mxGeometry relative="1" as="geometry">
            <mxPoint x="2210" y="-90" as="targetPoint" />
          </mxGeometry>
        </mxCell>
        <mxCell id="Oa3e6Vop-IHJ1VwNxxfE-47" value="&lt;span style=&quot;font-size: 20px;&quot;&gt;data == &#39;\n&#39; || data == EOF&lt;/span&gt;" style="rhombus;whiteSpace=wrap;html=1;" vertex="1" parent="WIyWlLk6GJQsqaUBKTNV-1">
          <mxGeometry x="1803.0900000000001" y="-290" width="301.82" height="120" as="geometry" />
        </mxCell>
        <mxCell id="Oa3e6Vop-IHJ1VwNxxfE-62" style="edgeStyle=orthogonalEdgeStyle;rounded=0;orthogonalLoop=1;jettySize=auto;html=1;exitX=0.5;exitY=1;exitDx=0;exitDy=0;entryX=0.5;entryY=0;entryDx=0;entryDy=0;" edge="1" parent="WIyWlLk6GJQsqaUBKTNV-1" source="Oa3e6Vop-IHJ1VwNxxfE-50" target="Oa3e6Vop-IHJ1VwNxxfE-61">
          <mxGeometry relative="1" as="geometry" />
        </mxCell>
        <mxCell id="Oa3e6Vop-IHJ1VwNxxfE-50" value="&lt;span style=&quot;font-size: 25px;&quot;&gt;Вывод&lt;br&gt;NULL&lt;br&gt;&lt;/span&gt;" style="shape=parallelogram;perimeter=parallelogramPerimeter;whiteSpace=wrap;html=1;fixedSize=1;" vertex="1" parent="WIyWlLk6GJQsqaUBKTNV-1">
          <mxGeometry x="1630" y="-94.5" width="150" height="60" as="geometry" />
        </mxCell>
        <mxCell id="Oa3e6Vop-IHJ1VwNxxfE-54" style="edgeStyle=orthogonalEdgeStyle;rounded=0;orthogonalLoop=1;jettySize=auto;html=1;exitX=0.5;exitY=1;exitDx=0;exitDy=0;entryX=0.5;entryY=0;entryDx=0;entryDy=0;" edge="1" parent="WIyWlLk6GJQsqaUBKTNV-1" source="Oa3e6Vop-IHJ1VwNxxfE-52" target="Oa3e6Vop-IHJ1VwNxxfE-55">
          <mxGeometry relative="1" as="geometry">
            <mxPoint x="2210" y="20" as="targetPoint" />
          </mxGeometry>
        </mxCell>
        <mxCell id="Oa3e6Vop-IHJ1VwNxxfE-52" value="list = createList(data, NULL)" style="rounded=0;whiteSpace=wrap;html=1;fontSize=20;" vertex="1" parent="WIyWlLk6GJQsqaUBKTNV-1">
          <mxGeometry x="2080" y="-90" width="264" height="51" as="geometry" />
        </mxCell>
        <mxCell id="Oa3e6Vop-IHJ1VwNxxfE-53" value="&lt;font style=&quot;font-size: 23px;&quot;&gt;Да&lt;/font&gt;" style="edgeLabel;html=1;align=center;verticalAlign=middle;resizable=0;points=[];" vertex="1" connectable="0" parent="WIyWlLk6GJQsqaUBKTNV-1">
          <mxGeometry x="1752.0014285714287" y="-232.99999999999977" as="geometry" />
        </mxCell>
        <mxCell id="Oa3e6Vop-IHJ1VwNxxfE-55" value="current = list-&amp;gt;head" style="rounded=0;whiteSpace=wrap;html=1;fontSize=20;" vertex="1" parent="WIyWlLk6GJQsqaUBKTNV-1">
          <mxGeometry x="2080" y="10" width="264" height="51" as="geometry" />
        </mxCell>
        <mxCell id="Oa3e6Vop-IHJ1VwNxxfE-59" style="edgeStyle=orthogonalEdgeStyle;rounded=0;orthogonalLoop=1;jettySize=auto;html=1;exitX=0;exitY=0.5;exitDx=0;exitDy=0;entryX=0.5;entryY=0;entryDx=0;entryDy=0;" edge="1" parent="WIyWlLk6GJQsqaUBKTNV-1" source="Oa3e6Vop-IHJ1VwNxxfE-58" target="Oa3e6Vop-IHJ1VwNxxfE-60">
          <mxGeometry relative="1" as="geometry">
            <mxPoint x="1940" y="389" as="targetPoint" />
          </mxGeometry>
        </mxCell>
        <mxCell id="Oa3e6Vop-IHJ1VwNxxfE-65" style="edgeStyle=orthogonalEdgeStyle;rounded=0;orthogonalLoop=1;jettySize=auto;html=1;exitX=1;exitY=0.5;exitDx=0;exitDy=0;entryX=0.5;entryY=0;entryDx=0;entryDy=0;" edge="1" parent="WIyWlLk6GJQsqaUBKTNV-1" source="Oa3e6Vop-IHJ1VwNxxfE-58" target="Oa3e6Vop-IHJ1VwNxxfE-75">
          <mxGeometry relative="1" as="geometry">
            <mxPoint x="2474.91" y="375.5" as="targetPoint" />
          </mxGeometry>
        </mxCell>
        <mxCell id="Oa3e6Vop-IHJ1VwNxxfE-58" value="&lt;span style=&quot;font-size: 20px;&quot;&gt;data == &#39;\n&#39; || data == EOF&lt;/span&gt;" style="rhombus;whiteSpace=wrap;html=1;" vertex="1" parent="WIyWlLk6GJQsqaUBKTNV-1">
          <mxGeometry x="2061.09" y="219" width="301.82" height="120" as="geometry" />
        </mxCell>
        <mxCell id="Oa3e6Vop-IHJ1VwNxxfE-64" style="edgeStyle=orthogonalEdgeStyle;rounded=0;orthogonalLoop=1;jettySize=auto;html=1;exitX=0.5;exitY=1;exitDx=0;exitDy=0;entryX=0.5;entryY=0;entryDx=0;entryDy=0;" edge="1" parent="WIyWlLk6GJQsqaUBKTNV-1" source="Oa3e6Vop-IHJ1VwNxxfE-60" target="Oa3e6Vop-IHJ1VwNxxfE-63">
          <mxGeometry relative="1" as="geometry" />
        </mxCell>
        <mxCell id="Oa3e6Vop-IHJ1VwNxxfE-60" value="&lt;span style=&quot;font-size: 25px;&quot;&gt;Вывод&lt;br&gt;list&lt;br&gt;&lt;/span&gt;" style="shape=parallelogram;perimeter=parallelogramPerimeter;whiteSpace=wrap;html=1;fixedSize=1;" vertex="1" parent="WIyWlLk6GJQsqaUBKTNV-1">
          <mxGeometry x="1879" y="371" width="150" height="60" as="geometry" />
        </mxCell>
        <mxCell id="Oa3e6Vop-IHJ1VwNxxfE-61" value="&lt;p style=&quot;line-height: 110%;&quot;&gt;&lt;span style=&quot;font-size: 18px;&quot;&gt;Конец&lt;/span&gt;&lt;/p&gt;" style="ellipse;whiteSpace=wrap;html=1;" vertex="1" parent="WIyWlLk6GJQsqaUBKTNV-1">
          <mxGeometry x="1650" y="5.5" width="110" height="60" as="geometry" />
        </mxCell>
        <mxCell id="Oa3e6Vop-IHJ1VwNxxfE-63" value="&lt;p style=&quot;line-height: 110%;&quot;&gt;&lt;span style=&quot;font-size: 18px;&quot;&gt;Конец&lt;/span&gt;&lt;/p&gt;" style="ellipse;whiteSpace=wrap;html=1;" vertex="1" parent="WIyWlLk6GJQsqaUBKTNV-1">
          <mxGeometry x="1898.18" y="489" width="110" height="60" as="geometry" />
        </mxCell>
        <mxCell id="Oa3e6Vop-IHJ1VwNxxfE-66" value="&lt;font style=&quot;font-size: 23px;&quot;&gt;Да&lt;/font&gt;" style="edgeLabel;html=1;align=center;verticalAlign=middle;resizable=0;points=[];" vertex="1" connectable="0" parent="WIyWlLk6GJQsqaUBKTNV-1">
          <mxGeometry x="2007.1814285714288" y="276.0000000000002" as="geometry" />
        </mxCell>
        <mxCell id="Oa3e6Vop-IHJ1VwNxxfE-73" value="" style="edgeStyle=orthogonalEdgeStyle;rounded=0;orthogonalLoop=1;jettySize=auto;html=1;exitX=0.5;exitY=1;exitDx=0;exitDy=0;" edge="1" parent="WIyWlLk6GJQsqaUBKTNV-1" source="Oa3e6Vop-IHJ1VwNxxfE-55" target="Oa3e6Vop-IHJ1VwNxxfE-72">
          <mxGeometry relative="1" as="geometry">
            <mxPoint x="2211.764705882353" y="160" as="targetPoint" />
            <mxPoint x="2212" y="71" as="sourcePoint" />
          </mxGeometry>
        </mxCell>
        <mxCell id="Oa3e6Vop-IHJ1VwNxxfE-74" style="edgeStyle=orthogonalEdgeStyle;rounded=0;orthogonalLoop=1;jettySize=auto;html=1;exitX=0.5;exitY=1;exitDx=0;exitDy=0;entryX=0.5;entryY=0;entryDx=0;entryDy=0;" edge="1" parent="WIyWlLk6GJQsqaUBKTNV-1" source="Oa3e6Vop-IHJ1VwNxxfE-72" target="Oa3e6Vop-IHJ1VwNxxfE-58">
          <mxGeometry relative="1" as="geometry" />
        </mxCell>
        <mxCell id="Oa3e6Vop-IHJ1VwNxxfE-72" value="data = getchar()" style="rounded=0;whiteSpace=wrap;html=1;fontSize=20;" vertex="1" parent="WIyWlLk6GJQsqaUBKTNV-1">
          <mxGeometry x="2100" y="100" width="224" height="51" as="geometry" />
        </mxCell>
        <mxCell id="Oa3e6Vop-IHJ1VwNxxfE-76" style="edgeStyle=orthogonalEdgeStyle;rounded=0;orthogonalLoop=1;jettySize=auto;html=1;exitX=0.5;exitY=1;exitDx=0;exitDy=0;entryX=0.5;entryY=0;entryDx=0;entryDy=0;" edge="1" parent="WIyWlLk6GJQsqaUBKTNV-1" source="Oa3e6Vop-IHJ1VwNxxfE-75" target="Oa3e6Vop-IHJ1VwNxxfE-77">
          <mxGeometry relative="1" as="geometry">
            <mxPoint x="2472" y="500" as="targetPoint" />
          </mxGeometry>
        </mxCell>
        <mxCell id="Oa3e6Vop-IHJ1VwNxxfE-75" value="insertAfter(current, data)" style="rounded=0;whiteSpace=wrap;html=1;fontSize=20;" vertex="1" parent="WIyWlLk6GJQsqaUBKTNV-1">
          <mxGeometry x="2340" y="375.5" width="264" height="51" as="geometry" />
        </mxCell>
        <mxCell id="Oa3e6Vop-IHJ1VwNxxfE-78" style="edgeStyle=orthogonalEdgeStyle;rounded=0;orthogonalLoop=1;jettySize=auto;html=1;exitX=0.5;exitY=1;exitDx=0;exitDy=0;" edge="1" parent="WIyWlLk6GJQsqaUBKTNV-1">
          <mxGeometry relative="1" as="geometry">
            <mxPoint x="2212" y="80" as="targetPoint" />
            <mxPoint x="2473.9999999999995" y="544.5" as="sourcePoint" />
            <Array as="points">
              <mxPoint x="2474" y="620" />
              <mxPoint x="2700" y="620" />
              <mxPoint x="2700" y="80" />
            </Array>
          </mxGeometry>
        </mxCell>
        <mxCell id="Oa3e6Vop-IHJ1VwNxxfE-77" value="current = current-&amp;gt;next" style="rounded=0;whiteSpace=wrap;html=1;fontSize=20;" vertex="1" parent="WIyWlLk6GJQsqaUBKTNV-1">
          <mxGeometry x="2340" y="493.5" width="264" height="51" as="geometry" />
        </mxCell>
      </root>
    </mxGraphModel>
  </diagram>
</mxfile>
